<?xml version="1.0" encoding="UTF-8" standalone="no"?>
<!-- Created with Inkscape (http://www.inkscape.org/) -->

<svg
   xmlns:dc="http://purl.org/dc/elements/1.1/"
   xmlns:cc="http://creativecommons.org/ns#"
   xmlns:rdf="http://www.w3.org/1999/02/22-rdf-syntax-ns#"
   xmlns:svg="http://www.w3.org/2000/svg"
   xmlns="http://www.w3.org/2000/svg"
   xmlns:sodipodi="http://sodipodi.sourceforge.net/DTD/sodipodi-0.dtd"
   xmlns:inkscape="http://www.inkscape.org/namespaces/inkscape"
   width="256"
   height="256"
   id="svg2"
   version="1.1"
   inkscape:version="0.48.4 r9939"
   sodipodi:docname="tray-iconb.svg"
   inkscape:export-filename="/home/todd/projects/clicks-not-passwords/img/tray-icon.png"
   inkscape:export-xdpi="90"
   inkscape:export-ydpi="90">
  <defs
     id="defs4" />
  <sodipodi:namedview
     id="base"
     pagecolor="#8a4947"
     bordercolor="#666666"
     borderopacity="1.0"
     inkscape:pageopacity="0"
     inkscape:pageshadow="2"
     inkscape:zoom="1.6971343"
     inkscape:cx="195.25887"
     inkscape:cy="88.06637"
     inkscape:document-units="px"
     inkscape:current-layer="layer2"
     showgrid="false"
     inkscape:window-width="1409"
     inkscape:window-height="1034"
     inkscape:window-x="1622"
     inkscape:window-y="21"
     inkscape:window-maximized="0" />
  <metadata
     id="metadata7">
    <rdf:RDF>
      <cc:Work
         rdf:about="">
        <dc:format>image/svg+xml</dc:format>
        <dc:type
           rdf:resource="http://purl.org/dc/dcmitype/StillImage" />
        <dc:title></dc:title>
      </cc:Work>
    </rdf:RDF>
  </metadata>
  <g
     inkscape:groupmode="layer"
     id="layer2"
     inkscape:label="cloud">
    <path
       style="fill:#ffffff;fill-opacity:1;stroke:none"
       inkscape:connector-curvature="0"
       d="m 97.374878,51.43716 c -25.37627,0 -45.9377,20.56142 -45.9377,45.9377 0,6.04128 1.24128,11.7835 3.36446,17.07734 -19.54458,5.29336 -33.989587,22.96885 -33.989587,44.17292 0,25.37628 20.561427,45.93769 45.937697,45.93769 H 196.90656 c 21.14474,0 38.28141,-17.13714 38.28141,-38.2814 0,-21.14426 -17.13715,-38.28142 -38.28141,-38.28142 -1.17381,0 -2.27296,0.23926 -3.4171,0.34405 2.15333,-4.78517 3.4171,-10.0637 3.4171,-15.65662 0,-21.14474 -17.13716,-38.28141 -38.28142,-38.28141 -6.90883,0 -13.30135,1.97388 -18.89378,5.17421 C 132.77754,63.04121 116.44094,51.43716 97.374879,51.43716 m 0,-15.31257 c 19.589561,0 37.578481,9.25645 48.973421,24.43455 4.01476,-0.97235 8.1123,-1.4657 12.27684,-1.4657 29.54847,0 53.59398,24.04552 53.59398,53.59398 0,0.74793 -0.0148,1.48054 -0.045,2.21315 22.1391,6.57962 38.3264,27.12621 38.3264,51.38084 0,29.54847 -24.04552,53.594 -53.59398,53.594 H 66.749749 c -33.78048,0 -61.2502675,-27.46981 -61.2502675,-61.25029 0,-22.32572 12.2768495,-42.49859 31.1782975,-53.17528 -0.373721,-2.66151 -0.553161,-5.36849 -0.553161,-8.07498 0,-33.76517 27.469781,-61.25027 61.25026,-61.25027 l 0,0 z"
       id="path3835" />
    <path
       style="opacity:0.97989950999999997;fill:#21a0df;fill-opacity:1;stroke:none"
       d="m 57.615649,203.26246 c -9.439588,-2.02389 -15.920131,-5.6305 -23.130939,-12.87303 -4.722229,-4.74301 -5.762921,-6.18265 -8.349781,-11.55069 -3.56773,-7.40346 -4.816322,-12.70319 -4.816322,-20.44321 0,-18.90098 12.492837,-36.42347 30.338382,-42.55272 3.40042,-1.16791 3.376465,-1.04555 1.546251,-7.89852 -2.913038,-10.907432 -0.917189,-23.796365 5.322431,-34.371568 2.806325,-4.756292 10.609798,-12.46816 15.52889,-15.346597 17.349151,-10.151961 39.002379,-7.931646 53.821219,5.518808 4.34263,3.941638 7.6429,8.224101 9.92712,12.881537 0.89104,1.816783 1.89331,3.180667 2.22728,3.030852 12.25383,-5.496997 19.95819,-6.246905 30.3742,-2.956491 5.72017,1.807 12.38603,6.144066 16.51026,10.742206 3.49779,3.899717 7.82509,12.40936 8.80305,17.311213 1.29978,6.51485 0.63177,15.71544 -1.51384,20.85062 -0.45678,1.09322 -0.82948,2.19506 -0.82822,2.44852 0.001,0.25347 2.32134,0.49507 5.15575,0.53689 9.73782,0.14368 19.87501,4.88214 26.68311,12.47255 3.41776,3.81049 7.79518,12.34419 8.766,17.08915 0.88946,4.34732 0.78242,12.69694 -0.2168,16.91132 -3.28862,13.87032 -15.05625,25.38671 -28.90039,28.28335 -6.18239,1.29355 -141.181734,1.21637 -147.247651,-0.0842 l 0,0 z"
       id="path3856"
       inkscape:connector-curvature="0" />
  </g>
  <g
     inkscape:label="orig"
     inkscape:groupmode="layer"
     id="layer1"
     transform="translate(0,-796.36218)"
     style="display:inline">
    <path
       id="path2986"
       d="m 97.374866,847.79935 c -25.37627,0 -45.9377,20.56142 -45.9377,45.9377 0,6.04128 1.24128,11.7835 3.36446,17.07734 -19.54458,5.29336 -33.98959,22.96885 -33.98959,44.17292 0,25.37628 20.56143,45.93769 45.9377,45.93769 H 196.90655 c 21.14474,0 38.28141,-17.13714 38.28141,-38.2814 0,-21.14426 -17.13715,-38.28142 -38.28141,-38.28142 -1.17381,0 -2.27296,0.23926 -3.4171,0.34405 2.15333,-4.78517 3.4171,-10.0637 3.4171,-15.65662 0,-21.14474 -17.13716,-38.28141 -38.28142,-38.28141 -6.90883,0 -13.30135,1.97388 -18.89378,5.17421 -6.95382,-16.53901 -23.29042,-28.14306 -42.356484,-28.14306 m 0,-15.31257 c 19.589564,0 37.578484,9.25645 48.973424,24.43455 4.01476,-0.97235 8.1123,-1.4657 12.27684,-1.4657 29.54847,0 53.59398,24.04552 53.59398,53.59398 0,0.74793 -0.0148,1.48054 -0.045,2.21315 22.1391,6.57962 38.3264,27.12621 38.3264,51.38084 0,29.54847 -24.04552,53.594 -53.59398,53.594 H 66.749736 c -33.78048,0 -61.2502697,-27.46981 -61.2502697,-61.25029 0,-22.32572 12.2768497,-42.49859 31.1782997,-53.17528 -0.37372,-2.66151 -0.55316,-5.36849 -0.55316,-8.07498 0,-33.76517 27.46978,-61.25027 61.25026,-61.25027 l 0,0 z"
       inkscape:connector-curvature="0"
       style="fill:#ffffff;fill-opacity:1;stroke:none" />
    <path
       id="path3815"
       d="m 174.88634,965.69063 c 3.1433,3.1377 3.4584,9.09485 -0.012,12.56279 -3.46816,3.46916 -8.55105,4.02663 -11.66885,0.88347 l -13.03536,-13.01146 -10.45237,10.44955 c -1.78734,1.79016 -4.51692,1.92522 -6.13774,0.30409 l -14.10597,-14.10594 c -1.62102,-1.61819 -1.48593,-4.34835 0.30412,-6.13817 l 10.44999,-10.44952 -16.85758,-16.88134 c -3.89266,2.14916 -8.27385,3.47066 -12.83788,3.69678 -15.308288,0.75846 -27.102098,-11.03335 -26.343578,-26.34305 0.75844,-15.30782 13.78174,-28.33157 29.090028,-29.09002 15.30921,-0.7585 27.10173,11.03574 26.34329,26.34356 -0.22613,4.56404 -1.54835,8.94549 -3.69729,12.83815 l 49.25169,49.23164 z M 112.5668,904.75675 c 0.29153,-5.88429 -4.24824,-10.42404 -10.13205,-10.13252 -5.884518,0.29154 -10.896638,5.30455 -11.188188,11.18885 -0.29153,5.88427 4.24733,10.42337 10.131858,10.13182 5.88358,-0.2915 10.89685,-5.30411 11.18838,-11.18815 z"
       clip-rule="evenodd"
       inkscape:connector-curvature="0"
       style="fill:#ffffff;fill-opacity:1;fill-rule:evenodd"
       sodipodi:nodetypes="ccccccccccsssscccsssss" />
  </g>
</svg>
